:FULLY-SPECIFIED
:FORCE-ALL-JOINTS-BE-3DOF
:DEGREES
747
root 4.06846 17.1009 14.4581 0 0 0
lfemur -32.1746 6.15629 -13.9027
ltibia 0 0 0
lfoot -16.1383 1.69449 -2.46046
ltoes 0 0 0
rfemur -24.8279 -30.7903 9.94038
rtibia 0 0 0
rfoot 21.7505 -1.25303 0.57956
rtoes 0 0 0
lowerback 2.38046 6.14867 -1.88547
upperback 0 0 0
thorax 0 0 0
lowerneck 0 0 0
upperneck -1.64683 -11.1939 5.13115
head 0.974559 -5.50582 1.56061
lclavicle 0 0 0
lhumerus -52.1884 -13.7045 72.729
lradius 56.2316 -0 0
lwrist 15.6793 0 0
lhand -26.5153 -6.56811 0.0644992
lfingers 0 0 0
lthumb 0 0 0
rclavicle 0 0 0
rhumerus 16.3275 40.4653 -67.5597
rradius 0 0 0
rwrist 0.385819 0 0
rhand -22.4206 -23.0669 0.347303
rfingers 0 0 0
rthumb 4.00139 -52.9279 0.339409
748
root 4.02016 16.9412 14.6481 0 0 0
lfemur -33.6737 8.38959 -15.3874
ltibia 0 0 0
lfoot -18.9166 3.42951 -2.29245
ltoes 0 0 0
rfemur -24.6649 -31.0118 11.8731
rtibia 0 0 0
rfoot 20.572 -2.20771 0.540452
rtoes 0 0 0
lowerback 2.62374 6.03491 -2.24759
upperback 0 0 0
thorax 0 0 0
lowerneck 0 0 0
upperneck -1.64091 -11.3094 5.34523
head 0.966706 -5.55365 1.63714
lclavicle 0 0 0
lhumerus -51.9013 -13.2312 75.5079
lradius 57.0278 -0 0
lwrist 15.1581 0 0
lhand -27.0022 -6.82474 0.0601591
lfingers 0 0 0
lthumb 0 0 0
rclavicle 0 0 0
rhumerus 13.0896 43.1993 -71.4454
rradius 0 0 0
rwrist 1.282 0 0
rhand -21.6317 -22.2132 0.323899
rfingers 0 0 0
rthumb 4.76323 -52.0639 0.316538
749
root 3.97059 16.7868 14.8349 0 0 0
lfemur -35.1758 10.4945 -16.8762
ltibia 0 0 0
lfoot -21.5759 5.08432 -2.05255
ltoes 0 0 0
rfemur -24.5164 -31.2286 13.7308
rtibia 0 0 0
rfoot 19.4421 -3.12267 0.484492
rtoes 0 0 0
lowerback 2.85776 5.92722 -2.59538
upperback 0 0 0
thorax 0 0 0
lowerneck 0 0 0
upperneck -1.63564 -11.4201 5.55068
head 0.959111 -5.59952 1.71057
lclavicle 0 0 0
lhumerus -51.6046 -12.7903 78.1713
lradius 57.7916 -0 0
lwrist 14.6581 0 0
lhand -27.4693 -7.07089 0.0539456
lfingers 0 0 0
lthumb 0 0 0
rclavicle 0 0 0
rhumerus 9.60064 45.6548 -75.5437
rradius 0 0 0
rwrist 2.14178 0 0
rhand -20.8752 -21.3945 0.290401
rfingers 0 0 0
rthumb 5.49373 -51.2354 0.283802
750
root 3.91957 16.6388 15.0184 0 0 0
lfemur -36.6514 12.4402 -18.3395
ltibia 0 0 0
lfoot -24.0726 6.63083 -1.75679
ltoes 0 0 0
rfemur -24.3838 -31.4365 15.4838
rtibia 0 0 0
rfoot 18.379 -3.98321 0.415308
rtoes 0 0 0
lowerback 3.07872 5.82709 -2.92328
upperback 0 0 0
thorax 0 0 0
lowerneck 0 0 0
upperneck -1.63105 -11.5245 5.74424
head 0.951904 -5.64271 1.77974
lclavicle 0 0 0
lhumerus -51.3067 -12.3877 80.6776
lradius 58.511 -0 0
lwrist 14.1872 0 0
lhand -27.9092 -7.30267 0.0462589
lfingers 0 0 0
lthumb 0 0 0
rclavicle 0 0 0
rhumerus 5.9418 47.7912 -79.7671
rradius 0 0 0
rwrist 2.95153 0 0
rhand -20.1632 -20.6239 0.248975
rfingers 0 0 0
rthumb 6.18122 -50.4555 0.243319
751
root 3.8669 16.4984 15.198 0 0 0
lfemur -38.0663 14.199 -19.7434
ltibia 0 0 0
lfoot -26.3648 8.04286 -1.42502
ltoes 0 0 0
rfemur -24.2681 -31.631 17.1019
rtibia 0 0 0
rfoot 17.4005 -4.7748 0.337451
rtoes 0 0 0
lowerback 3.28278 5.73596 -3.22567
upperback 0 0 0
thorax 0 0 0
lowerneck 0 0 0
upperneck -1.62713 -11.6207 5.92263
head 0.945216 -5.6825 1.84349
lclavicle 0 0 0
lhumerus -51.017 -12.0284 82.9854
lradius 59.1738 -0 0
lwrist 13.7533 0 0
lhand -28.3145 -7.51616 0.037602
lfingers 0 0 0
lthumb 0 0 0
rclavicle 0 0 0
rhumerus 2.23112 49.5839 -83.9911
rradius 0 0 0
rwrist 3.69758 0 0
rhand -19.5078 -19.9144 0.202339
rfingers 0 0 0
rthumb 6.81409 -49.7375 0.197743
752
root 3.81239 16.3669 15.3734 0 0 0
lfemur -39.3821 15.7459 -21.0496
ltibia 0 0 0
lfoot -28.4117 9.29617 -1.07996
ltoes 0 0 0
rfemur -24.1697 -31.8076 18.5548
rtibia 0 0 0
rfoot 16.5244 -5.48311 0.256191
rtoes 0 0 0
lowerback 3.46606 5.65518 -3.49695
upperback 0 0 0
thorax 0 0 0
lowerneck 0 0 0
upperneck -1.62388 -11.7069 6.08257
head 0.939184 -5.71816 1.90063
lclavicle 0 0 0
lhumerus -50.7452 -11.7163 85.0529
lradius 59.7679 -0 0
lwrist 13.3643 0 0
lhand -28.6777 -7.70747 0.0285592
lfingers 0 0 0
lthumb 0 0 0
rclavicle 0 0 0
rhumerus -1.37962 51.0278 -88.0572
rradius 0 0 0
rwrist 4.36631 0 0
rhand -18.9209 -19.279 0.153645
rfingers 0 0 0
rthumb 7.38083 -49.0943 0.150156
753
root 3.75587 16.2454 15.5442 0 0 0
lfemur -40.5566 17.0583 -22.2159
ltibia 0 0 0
lfoot -30.1734 10.3684 -0.746032
ltoes 0 0 0
rfemur -24.0888 -31.9619 19.812
rtibia 0 0 0
rfoot 15.7684 -6.09399 0.177278
rtoes 0 0 0
lowerback 3.6247 5.58608 -3.73151
upperback 0 0 0
thorax 0 0 0
lowerneck 0 0 0
upperneck -1.62127 -11.7813 6.22079
head 0.933943 -5.74896 1.95
lclavicle 0 0 0
lhumerus -50.5015 -11.4545 86.8386
lradius 60.2812 -0 0
lwrist 13.0283 0 0
lhand -28.9915 -7.87269 0.0197704
lfingers 0 0 0
lthumb 0 0 0
rclavicle 0 0 0
rhumerus -4.7149 52.1369 -91.7828
rradius 0 0 0
rwrist 4.94405 0 0
rhand -18.4143 -18.7305 0.10634
rfingers 0 0 0
rthumb 7.87 -48.539 0.103925
754
root 3.69713 16.1351 15.7102 0 0 0
lfemur -41.5455 18.1155 -23.1982
ltibia 0 0 0
lfoot -31.6112 11.2383 -0.448178
ltoes 0 0 0
rfemur -24.0254 -32.0894 20.8429
rtibia 0 0 0
rfoot 15.1499 -6.59342 0.106662
rtoes 0 0 0
lowerback 3.7548 5.52999 -3.9237
upperback 0 0 0
thorax 0 0 0
lowerneck 0 0 0
upperneck -1.61927 -11.8423 6.334
head 0.929631 -5.77418 1.99044
lclavicle 0 0 0
lhumerus -50.296 -11.2457 88.3004
lradius 60.7015 -0 0
lwrist 12.7532 0 0
lhand -29.2485 -8.00796 0.0118994
lfingers 0 0 0
lthumb 0 0 0
rclavicle 0 0 0
rhumerus -7.59026 52.941 -94.9759
rradius 0 0 0
rwrist 5.41716 0 0
rhand -17.9998 -18.2816 0.0639917
rfingers 0 0 0
rthumb 8.27024 -48.0847 0.0625391
755
root 3.63599 16.0372 15.8708 0 0 0
lfemur -42.3036 18.8976 -23.9515
ltibia 0 0 0
lfoot -32.6864 11.8858 -0.210533
ltoes 0 0 0
rfemur -23.9796 -32.1856 21.6169
rtibia 0 0 0
rfoot 14.6865 -6.96748 0.0501655
rtoes 0 0 0
lowerback 3.85249 5.4882 -4.06792
upperback 0 0 0
thorax 0 0 0
lowerneck 0 0 0
upperneck -1.61785 -11.8881 6.41893
head 0.926385 -5.79309 2.02077
lclavicle 0 0 0
lhumerus -50.1385 -11.0926 89.3966
lradius 61.0168 -0 0
lwrist 12.5468 0 0
lhand -29.4412 -8.10938 0.00559821
lfingers 0 0 0
lthumb 0 0 0
rclavicle 0 0 0
rhumerus -9.82744 53.4784 -97.4505
rradius 0 0 0
rwrist 5.77199 0 0
rhand -17.6891 -17.9451 0.0301009
rfingers 0 0 0
rthumb 8.57019 -47.7441 0.0294177
756
root 3.57226 15.9529 16.0259 0 0 0
lfemur -42.7873 19.384 -24.4321
ltibia 0 0 0
lfoot -33.3605 12.2901 -0.055052
ltoes 0 0 0
rfemur -23.9516 -32.2463 22.1035
rtibia 0 0 0
rfoot 14.3956 -7.20222 0.0131281
rtoes 0 0 0
lowerback 3.91391 5.46207 -4.15855
upperback 0 0 0
thorax 0 0 0
lowerneck 0 0 0
upperneck -1.61699 -11.9168 6.47229
head 0.924341 -5.80497 2.03982
lclavicle 0 0 0
lhumerus -50.038 -10.9979 90.0852
lradius 61.2148 -0 0
lwrist 12.4172 0 0
lhand -29.5622 -8.17309 0.00146531
lfingers 0 0 0
lthumb 0 0 0
rclavicle 0 0 0
rhumerus -11.2661 53.7859 -99.038
rradius 0 0 0
rwrist 5.99489 0 0
rhand -17.4941 -17.7339 0.00787799
rfingers 0 0 0
rthumb 8.75852 -47.5302 0.00769922
757
root 3.50576 15.8834 16.1749 -163.738 18.5703 -171.398
lfemur -42.9564 19.5519 -24.6002
ltibia 60.5986 0 0
lfoot -33.5941 12.43 0
ltoes 12.1179 0 0
rfemur -23.942 -32.2674 22.2724
rtibia 87.1918 0 0
rfoot 14.2947 -7.28362 0
rtoes 26.0209 0 0
lowerback 3.93523 5.45303 -4.19
upperback -0.426697 7.11109 -3.69508
thorax -2.66981 3.6315 -1.92717
lowerneck -5.24262 -9.09161 -2.03693
upperneck -1.6167 -11.9268 6.4908
head 0.923631 -5.80909 2.04643
lclavicle -3.02153e-14 -9.54166e-15 0
lhumerus -50.0029 -10.9653 90.3241
lradius 61.2835 0 0
lwrist 12.3722 0 0
lhand -29.6042 -8.19519 0
lfingers 7.12502 0 0
lthumb -2.93523 21.7644 0
rclavicle -3.02153e-14 -9.54166e-15 0
rhumerus -11.771 53.887 -99.5944
rradius 86.8935 0 0
rwrist 6.07223 0 0
rhand -17.4264 -17.6606 0
rfingers 7.12502 0 0
rthumb 8.82384 -47.456 0
758
root 3.43444 15.8292 16.3173 0 0 0
lfemur 0 0 0
ltibia 60.3553 -0 0
lfoot 0 0 0
ltoes 12.361 -0 0
rfemur 0 0 0
rtibia 0 0 0
rfoot 0 0 0
rtoes 24.6322 -0 0
lowerback 3.85583 5.42992 -4.10975
upperback 0 0 0
thorax 0 0 0
lowerneck 0 0 0
upperneck 0 0 0
head 0.906573 -5.7716 2.03736
lclavicle 0 0 0
lhumerus 0 0 0
lradius 0 0 0
lwrist 0 0 0
lhand -29.3381 -8.13161 0.00510255
lfingers 0 0 0
lthumb -2.67826 21.826 0.00477556
rclavicle 0 0 0
rhumerus -12.3238 53.7688 -99.9793
rradius 0 0 0
rwrist 0 0 0
rhand -17.5842 -17.7201 0.00282616
rfingers 0 0 0
rthumb 8.67148 -47.5199 0.00293099
759
root 3.35689 15.7891 16.4531 0 0 0
lfemur 0 0 0
ltibia 60.0421 -0 0
lfoot 0 0 0
ltoes 12.6739 -0 0
rfemur 0 0 0
rtibia 0 0 0
rfoot 0 0 0
rtoes 22.8446 -0 0
lowerback 3.75358 5.40033 -4.00639
upperback 0 0 0
thorax 0 0 0
lowerneck 0 0 0
upperneck 0 0 0
head 0.884606 -5.72335 2.02567
lclavicle 0 0 0
lhumerus 0 0 0
lradius 0 0 0
lwrist 0 0 0
lhand -28.9956 -8.04972 0.0112365
lfingers 0 0 0
lthumb -2.34745 21.9054 0.0105164
rclavicle 0 0 0
rhumerus -13.0311 53.6135 -100.47
rradius 0 0 0
rwrist 0 0 0
rhand -17.7874 -17.7966 0.00622329
rfingers 0 0 0
rthumb 8.47533 -47.6021 0.00645412
760
root 3.27388 15.7622 16.5827 0 0 0
lfemur 0 0 0
ltibia 59.6673 -0 0
lfoot 0 0 0
ltoes 13.0483 -0 0
rfemur 0 0 0
rtibia 0 0 0
rfoot 0 0 0
rtoes 20.7057 -0 0
lowerback 3.63117 5.36516 -3.88268
upperback 0 0 0
thorax 0 0 0
lowerneck 0 0 0
upperneck 0 0 0
head 0.858314 -5.66562 2.01166
lclavicle 0 0 0
lhumerus 0 0 0
lradius 0 0 0
lwrist 0 0 0
lhand -28.5857 -7.9517 0.0179319
lfingers 0 0 0
lthumb -1.95165 22.0004 0.0167826
rclavicle 0 0 0
rhumerus -13.8709 53.423 -101.051
rradius 0 0 0
rwrist 0 0 0
rhand -18.0305 -17.8882 0.00993098
rfingers 0 0 0
rthumb 8.24064 -47.7005 0.0102993
761
root 3.18617 15.7473 16.7066 0 0 0
lfemur 0 0 0
ltibia 59.2394 -0 0
lfoot 0 0 0
ltoes 13.4757 -0 0
rfemur 0 0 0
rtibia 0 0 0
rfoot 0 0 0
rtoes 18.2636 -0 0
lowerback 3.49133 5.32534 -3.74133
upperback 0 0 0
thorax 0 0 0
lowerneck 0 0 0
upperneck 0 0 0
head 0.82828 -5.59971 1.99563
lclavicle 0 0 0
lhumerus 0 0 0
lradius 0 0 0
lwrist 0 0 0
lhand -28.1178 -7.83973 0.0247191
lfingers 0 0 0
lthumb -1.49971 22.1089 0.0231346
rclavicle 0 0 0
rhumerus -14.8211 53.1993 -101.705
rradius 0 0 0
rwrist 0 0 0
rhand -18.3081 -17.9928 0.0136891
rfingers 0 0 0
rthumb 7.97268 -47.8129 0.0141968
